<?xml version="1.0" encoding="UTF-8" standalone="no"?>
<!DOCTYPE svg PUBLIC "-//W3C//DTD SVG 1.1//EN" "http://www.w3.org/Graphics/SVG/1.1/DTD/svg11.dtd">
<!-- Created with Vectornator (http://vectornator.io/) -->
<svg height="100%" stroke-miterlimit="10" style="fill-rule:nonzero;clip-rule:evenodd;stroke-linecap:round;stroke-linejoin:round;" version="1.1" viewBox="0 0 500 500" width="100%" xml:space="preserve" xmlns="http://www.w3.org/2000/svg" xmlns:vectornator="http://vectornator.io" xmlns:xlink="http://www.w3.org/1999/xlink">
<defs>
<filter color-interpolation-filters="sRGB" filterUnits="userSpaceOnUse" height="296" id="Filter" width="296" x="107.064" y="100.754">
<feDropShadow dx="0" dy="0" flood-color="#667567" flood-opacity="1" in="SourceGraphic" result="Shadow" stdDeviation="10"/>
</filter>
</defs>
<clipPath id="ArtboardFrame">
<rect height="500" width="500" x="0" y="0"/>
</clipPath>
<g clip-path="url(#ArtboardFrame)" id="Untitled" vectornator:layerName="Untitled">
<g opacity="1">
<clipPath id="ClipPath">
<path d="M-0.083955 0L499.916 0L499.916 0L499.916 500L499.916 500L-0.083955 500L-0.083955 500L-0.083955 0L-0.083955 0Z"/>
</clipPath>
<g clip-path="url(#ClipPath)">
<path d="M252.502 96.1353C251.457 96.1353 250.561 95.87 249.813 95.3393C249.069 94.8044 248.496 94.0339 248.094 93.0278C247.697 92.0174 247.498 90.8012 247.498 89.379C247.502 87.9569 247.703 86.747 248.101 85.7494C248.502 84.7475 249.075 83.9833 249.819 83.4569C250.567 82.9305 251.462 82.6673 252.502 82.6673C253.542 82.6673 254.436 82.9305 255.184 83.4569C255.933 83.9833 256.506 84.7475 256.903 85.7494C257.305 86.7512 257.505 87.9611 257.505 89.379C257.505 90.8054 257.305 92.0238 256.903 93.0342C256.506 94.0403 255.933 94.8087 255.184 95.3393C254.44 95.87 253.546 96.1353 252.502 96.1353ZM252.502 94.1422C253.313 94.1422 253.954 93.741 254.423 92.9386C254.897 92.132 255.134 90.9455 255.134 89.379C255.134 88.3432 255.026 87.4729 254.81 86.7682C254.595 86.0635 254.29 85.5328 253.897 85.1762C253.504 84.8154 253.039 84.635 252.502 84.635C251.694 84.635 251.056 85.0383 250.587 85.8449C250.117 86.6472 249.88 87.8253 249.876 89.379C249.872 90.4191 249.976 91.2936 250.187 92.0026C250.403 92.7115 250.707 93.2464 251.1 93.6072C251.493 93.9638 251.961 94.1422 252.502 94.1422Z" fill="#333333" fill-rule="nonzero" opacity="1" stroke="none"/>
<path d="M262.441 91.4936C260.923 91.4936 259.655 92.7489 259.655 94.291C259.655 95.8511 260.923 97.1063 262.441 97.1063C263.994 97.1063 265.245 95.8511 265.245 94.291C265.245 92.7489 263.994 91.4936 262.441 91.4936ZM262.441 96.0304C261.512 96.0304 260.726 95.2593 260.726 94.291C260.726 93.3406 261.512 92.5696 262.441 92.5696C263.405 92.5696 264.173 93.3406 264.173 94.291C264.173 95.2593 263.405 96.0304 262.441 96.0304Z" fill="#333333" fill-rule="nonzero" opacity="1" stroke="none"/>
<path d="M166.872 120.275C166.253 120.634 165.638 120.848 165.027 120.916C164.42 120.982 163.865 120.907 163.364 120.69C162.863 120.469 162.458 120.112 162.147 119.62L163.563 118.799C163.739 119.063 163.968 119.249 164.25 119.355C164.533 119.457 164.841 119.484 165.174 119.435C165.508 119.387 165.84 119.267 166.17 119.075C166.534 118.864 166.82 118.614 167.026 118.325C167.236 118.035 167.356 117.73 167.385 117.411C167.412 117.089 167.34 116.779 167.168 116.48C166.989 116.169 166.753 115.941 166.458 115.798C166.164 115.65 165.826 115.597 165.444 115.637C165.066 115.675 164.663 115.818 164.235 116.066L163.455 116.518L162.799 115.377L163.579 114.924C163.922 114.725 164.187 114.489 164.375 114.215C164.565 113.94 164.671 113.649 164.691 113.343C164.71 113.034 164.634 112.731 164.462 112.432C164.297 112.145 164.089 111.933 163.838 111.797C163.588 111.655 163.311 111.592 163.007 111.608C162.706 111.621 162.398 111.719 162.082 111.902C161.781 112.077 161.532 112.296 161.335 112.559C161.139 112.818 161.018 113.097 160.974 113.396C160.928 113.693 160.981 113.986 161.132 114.277L159.783 115.059C159.51 114.549 159.404 114.023 159.464 113.48C159.528 112.936 159.73 112.422 160.07 111.939C160.41 111.456 160.863 111.051 161.428 110.723C162.021 110.38 162.599 110.2 163.163 110.183C163.728 110.161 164.238 110.274 164.693 110.522C165.151 110.768 165.51 111.119 165.769 111.577C166.071 112.095 166.18 112.619 166.096 113.151C166.016 113.681 165.771 114.147 165.361 114.55L165.402 114.622C166.07 114.36 166.686 114.329 167.25 114.53C167.817 114.728 168.268 115.121 168.602 115.709C168.898 116.218 169.02 116.757 168.967 117.327C168.917 117.896 168.714 118.439 168.357 118.955C167.999 119.469 167.504 119.909 166.872 120.275Z" fill="#333333" fill-rule="nonzero" opacity="1" stroke="none"/>
<path d="M175.442 115.307C174.822 115.666 174.207 115.88 173.597 115.948C172.989 116.014 172.435 115.939 171.933 115.723C171.433 115.501 171.027 115.144 170.716 114.652L172.133 113.831C172.309 114.095 172.538 114.281 172.819 114.387C173.102 114.489 173.411 114.516 173.744 114.468C174.077 114.419 174.409 114.299 174.74 114.108C175.104 113.897 175.389 113.647 175.596 113.358C175.806 113.067 175.925 112.762 175.954 112.443C175.982 112.121 175.91 111.811 175.738 111.512C175.559 111.201 175.322 110.974 175.027 110.83C174.733 110.683 174.396 110.629 174.014 110.669C173.635 110.707 173.232 110.85 172.805 111.098L172.024 111.55L171.368 110.409L172.148 109.956C172.491 109.758 172.757 109.521 172.944 109.248C173.134 108.972 173.24 108.681 173.261 108.376C173.279 108.067 173.203 107.763 173.031 107.464C172.866 107.177 172.658 106.965 172.407 106.829C172.158 106.688 171.881 106.625 171.577 106.64C171.276 106.653 170.967 106.751 170.651 106.935C170.351 107.109 170.102 107.328 169.904 107.591C169.708 107.85 169.588 108.129 169.544 108.429C169.497 108.725 169.55 109.019 169.701 109.31L168.352 110.092C168.079 109.581 167.973 109.055 168.034 108.512C168.098 107.968 168.3 107.454 168.64 106.971C168.979 106.489 169.432 106.083 169.998 105.755C170.59 105.412 171.168 105.232 171.732 105.215C172.297 105.193 172.807 105.306 173.262 105.554C173.72 105.8 174.079 106.151 174.338 106.609C174.64 107.127 174.749 107.652 174.666 108.183C174.585 108.713 174.34 109.179 173.93 109.582L173.972 109.654C174.639 109.392 175.255 109.361 175.819 109.562C176.387 109.76 176.837 110.153 177.171 110.741C177.468 111.25 177.589 111.789 177.536 112.359C177.486 112.928 177.283 113.471 176.927 113.987C176.568 114.501 176.073 114.941 175.442 115.307Z" fill="#333333" fill-rule="nonzero" opacity="1" stroke="none"/>
<path d="M184.027 110.367C183.312 110.777 182.595 110.941 181.874 110.86C181.153 110.778 180.453 110.457 179.774 109.896C179.095 109.336 178.465 108.551 177.885 107.543C177.307 106.537 176.947 105.6 176.805 104.732C176.666 103.863 176.741 103.094 177.031 102.427C177.324 101.758 177.824 101.218 178.531 100.808C179.238 100.399 179.952 100.236 180.675 100.321C181.395 100.402 182.094 100.722 182.772 101.279C183.45 101.832 184.079 102.611 184.657 103.617C185.239 104.629 185.602 105.57 185.746 106.441C185.888 107.309 185.815 108.078 185.526 108.748C185.236 109.416 184.737 109.955 184.027 110.367ZM183.331 109.157C183.957 108.794 184.269 108.205 184.269 107.388C184.271 106.569 183.939 105.58 183.272 104.42C182.829 103.65 182.374 103.046 181.906 102.609C181.439 102.167 180.976 101.895 180.518 101.795C180.06 101.69 179.625 101.756 179.213 101.995C178.591 102.356 178.279 102.948 178.278 103.769C178.278 104.591 178.608 105.581 179.271 106.74C179.715 107.513 180.171 108.12 180.637 108.563C181.105 109 181.567 109.27 182.023 109.372C182.477 109.471 182.913 109.399 183.331 109.157Z" fill="#333333" fill-rule="nonzero" opacity="1" stroke="none"/>
<path d="M189.069 103.071C187.99 103.697 187.601 105.113 188.232 106.21C188.87 107.32 190.285 107.69 191.365 107.064C192.471 106.423 192.846 105.014 192.208 103.905C191.577 102.808 190.175 102.43 189.069 103.071ZM190.925 106.298C190.265 106.681 189.39 106.457 188.994 105.768C188.605 105.092 188.849 104.219 189.51 103.836C190.196 103.439 191.057 103.67 191.446 104.346C191.842 105.035 191.611 105.9 190.925 106.298Z" fill="#333333" fill-rule="nonzero" opacity="1" stroke="none"/>
<path d="M331.405 110.701C330.786 110.342 330.294 109.914 329.93 109.417C329.569 108.922 329.357 108.402 329.293 107.858C329.233 107.312 329.338 106.781 329.607 106.264L331.024 107.085C330.884 107.371 330.838 107.662 330.888 107.961C330.941 108.258 331.072 108.539 331.28 108.805C331.489 109.07 331.758 109.299 332.089 109.491C332.453 109.702 332.811 109.825 333.164 109.86C333.52 109.897 333.842 109.849 334.132 109.715C334.423 109.577 334.655 109.359 334.827 109.06C335.006 108.749 335.083 108.43 335.059 108.102C335.04 107.773 334.917 107.452 334.692 107.14C334.469 106.83 334.144 106.551 333.717 106.303L332.937 105.851L333.593 104.709L334.374 105.162C334.716 105.36 335.053 105.473 335.383 105.499C335.716 105.527 336.019 105.473 336.293 105.338C336.569 105.2 336.793 104.982 336.965 104.683C337.13 104.396 337.208 104.109 337.201 103.823C337.198 103.535 337.114 103.263 336.948 103.006C336.786 102.751 336.547 102.532 336.231 102.349C335.931 102.175 335.617 102.068 335.291 102.028C334.97 101.986 334.669 102.021 334.389 102.133C334.11 102.241 333.883 102.433 333.708 102.71L332.359 101.928C332.662 101.436 333.063 101.08 333.562 100.862C334.063 100.645 334.607 100.564 335.194 100.618C335.78 100.672 336.356 100.863 336.922 101.191C337.514 101.534 337.958 101.947 338.255 102.429C338.556 102.909 338.714 103.41 338.728 103.929C338.745 104.45 338.621 104.938 338.355 105.392C338.06 105.914 337.662 106.271 337.162 106.464C336.665 106.659 336.14 106.679 335.587 106.524L335.546 106.596C336.106 107.046 336.44 107.566 336.549 108.157C336.662 108.749 336.548 109.338 336.208 109.922C335.918 110.434 335.513 110.809 334.995 111.048C334.48 111.289 333.91 111.384 333.286 111.332C332.664 111.277 332.037 111.067 331.405 110.701Z" fill="#333333" fill-rule="nonzero" opacity="1" stroke="none"/>
<path d="M339.959 115.696C339.248 115.28 338.747 114.738 338.457 114.07C338.167 113.403 338.094 112.634 338.238 111.763C338.382 110.892 338.744 109.952 339.324 108.944C339.902 107.938 340.53 107.156 341.208 106.599C341.888 106.043 342.589 105.724 343.309 105.643C344.033 105.563 344.748 105.728 345.455 106.138C346.162 106.547 346.659 107.088 346.947 107.758C347.237 108.425 347.311 109.193 347.169 110.061C347.032 110.928 346.674 111.864 346.096 112.869C345.514 113.881 344.884 114.667 344.204 115.228C343.527 115.785 342.827 116.106 342.105 116.191C341.384 116.272 340.669 116.107 339.959 115.696ZM340.654 114.486C341.28 114.849 341.945 114.826 342.649 114.417C343.357 114.009 344.044 113.226 344.711 112.066C345.153 111.296 345.446 110.598 345.59 109.973C345.738 109.346 345.74 108.808 345.597 108.359C345.459 107.908 345.184 107.563 344.772 107.325C344.15 106.964 343.484 106.988 342.775 107.399C342.066 107.809 341.377 108.592 340.709 109.747C340.264 110.52 339.968 111.22 339.82 111.847C339.677 112.472 339.675 113.009 339.815 113.456C339.957 113.901 340.236 114.244 340.654 114.486Z" fill="#333333" fill-rule="nonzero" opacity="1" stroke="none"/>
<path d="M348.773 116.433C347.693 115.807 346.278 116.177 345.647 117.274C345.009 118.384 345.397 119.8 346.477 120.426C347.582 121.066 348.985 120.689 349.623 119.579C350.254 118.482 349.878 117.074 348.773 116.433ZM346.917 119.66C346.256 119.277 346.013 118.405 346.409 117.716C346.798 117.04 347.672 116.815 348.333 117.198C349.019 117.596 349.25 118.461 348.861 119.137C348.465 119.826 347.603 120.058 346.917 119.66Z" fill="#333333" fill-rule="nonzero" opacity="1" stroke="none"/>
<path d="M387.513 164.981C387.281 164.563 387.122 164.112 387.035 163.627C386.95 163.144 386.982 162.643 387.132 162.121C387.281 161.6 387.584 161.076 388.039 160.55C388.496 160.027 389.151 159.519 390.002 159.026C390.808 158.559 391.57 158.224 392.287 158.021C393.007 157.821 393.669 157.749 394.275 157.805C394.883 157.859 395.424 158.037 395.898 158.338C396.372 158.639 396.763 159.058 397.073 159.596C397.39 160.148 397.564 160.702 397.594 161.256C397.624 161.811 397.525 162.331 397.296 162.818C397.068 163.309 396.732 163.731 396.286 164.086L395.492 162.705C395.823 162.388 396.03 162.02 396.114 161.601C396.198 161.182 396.111 160.749 395.854 160.302C395.464 159.622 394.864 159.263 394.056 159.224C393.249 159.189 392.32 159.474 391.269 160.079L391.308 160.147C391.662 160.155 391.997 160.223 392.314 160.349C392.636 160.476 392.93 160.656 393.196 160.889C393.467 161.122 393.695 161.401 393.881 161.724C394.19 162.261 394.339 162.823 394.327 163.41C394.32 163.998 394.163 164.554 393.855 165.079C393.547 165.603 393.099 166.037 392.509 166.378C391.92 166.72 391.309 166.895 390.676 166.904C390.045 166.915 389.45 166.76 388.893 166.439C388.338 166.117 387.878 165.63 387.513 164.981ZM388.683 164.296C388.888 164.652 389.158 164.92 389.494 165.1C389.83 165.28 390.193 165.366 390.581 165.358C390.97 165.35 391.346 165.241 391.71 165.03C392.065 164.824 392.342 164.557 392.542 164.228C392.743 163.901 392.85 163.55 392.861 163.172C392.875 162.798 392.78 162.434 392.577 162.081C392.422 161.812 392.228 161.593 391.994 161.423C391.761 161.255 391.505 161.138 391.226 161.071C390.946 161.003 390.661 160.987 390.369 161.024C390.081 161.061 389.809 161.155 389.55 161.305C389.204 161.506 388.93 161.771 388.727 162.102C388.526 162.436 388.416 162.796 388.397 163.181C388.383 163.568 388.478 163.94 388.683 164.296Z" fill="#333333" fill-rule="nonzero" opacity="1" stroke="none"/>
<path d="M392.364 173.48C391.955 172.762 391.791 172.042 391.873 171.318C391.954 170.595 392.274 169.892 392.832 169.21C393.39 168.528 394.172 167.896 395.176 167.313C396.178 166.733 397.11 166.371 397.975 166.228C398.841 166.089 399.606 166.164 400.271 166.455C400.937 166.75 401.475 167.252 401.883 167.961C402.291 168.671 402.453 169.388 402.368 170.114C402.287 170.837 401.969 171.539 401.414 172.219C400.863 172.901 400.087 173.532 399.086 174.113C398.078 174.697 397.141 175.061 396.273 175.205C395.409 175.348 394.643 175.275 393.975 174.985C393.311 174.694 392.773 174.192 392.364 173.48ZM393.568 172.781C393.929 173.409 394.517 173.723 395.33 173.723C396.146 173.725 397.131 173.391 398.286 172.722C399.053 172.277 399.654 171.82 400.09 171.35C400.53 170.881 400.8 170.417 400.9 169.956C401.005 169.497 400.939 169.06 400.701 168.646C400.341 168.021 399.752 167.708 398.934 167.708C398.115 167.707 397.129 168.039 395.976 168.704C395.206 169.15 394.601 169.608 394.16 170.076C393.725 170.546 393.456 171.01 393.354 171.468C393.255 171.924 393.327 172.362 393.568 172.781Z" fill="#333333" fill-rule="nonzero" opacity="1" stroke="none"/>
<path d="M399.63 178.543C399.006 177.459 397.596 177.069 396.503 177.702C395.398 178.343 395.03 179.764 395.653 180.848C396.291 181.958 397.694 182.335 398.799 181.695C399.892 181.061 400.268 179.653 399.63 178.543ZM396.415 180.406C396.034 179.743 396.258 178.865 396.944 178.467C397.617 178.077 398.486 178.322 398.867 178.985C399.263 179.674 399.032 180.539 398.359 180.929C397.673 181.327 396.811 181.095 396.415 180.406Z" fill="#333333" fill-rule="nonzero" opacity="1" stroke="none"/>
<path d="M114.438 180.412C114.081 181.034 113.654 181.528 113.159 181.893C112.666 182.255 112.149 182.469 111.607 182.533C111.063 182.592 110.534 182.487 110.02 182.217L110.838 180.795C111.122 180.935 111.412 180.981 111.709 180.931C112.005 180.877 112.285 180.746 112.55 180.537C112.814 180.328 113.042 180.057 113.233 179.725C113.443 179.36 113.566 179 113.601 178.646C113.638 178.289 113.59 177.965 113.456 177.674C113.319 177.381 113.102 177.149 112.805 176.976C112.495 176.796 112.177 176.719 111.85 176.743C111.522 176.762 111.203 176.885 110.892 177.112C110.583 177.335 110.305 177.661 110.059 178.09L109.608 178.874L108.471 178.215L108.922 177.431C109.12 177.087 109.232 176.749 109.258 176.418C109.286 176.084 109.232 175.779 109.098 175.504C108.96 175.227 108.743 175.002 108.445 174.829C108.159 174.664 107.874 174.585 107.588 174.592C107.302 174.595 107.031 174.68 106.775 174.846C106.521 175.009 106.303 175.248 106.121 175.566C105.947 175.868 105.84 176.182 105.8 176.509C105.759 176.832 105.794 177.134 105.905 177.416C106.013 177.696 106.205 177.923 106.48 178.099L105.701 179.454C105.211 179.149 104.857 178.747 104.639 178.246C104.424 177.743 104.343 177.196 104.397 176.608C104.45 176.019 104.641 175.44 104.967 174.873C105.309 174.278 105.72 173.831 106.2 173.534C106.679 173.232 107.177 173.073 107.694 173.059C108.213 173.042 108.699 173.167 109.151 173.433C109.671 173.73 110.026 174.129 110.219 174.631C110.413 175.131 110.433 175.657 110.278 176.212L110.35 176.254C110.798 175.692 111.316 175.356 111.904 175.246C112.495 175.133 113.081 175.248 113.662 175.589C114.172 175.881 114.546 176.287 114.784 176.807C115.024 177.325 115.118 177.897 115.067 178.523C115.013 179.148 114.803 179.777 114.438 180.412Z" fill="#333333" fill-rule="nonzero" opacity="1" stroke="none"/>
<path d="M119.413 171.823C118.998 172.537 118.459 173.039 117.794 173.331C117.129 173.622 116.363 173.695 115.496 173.551C114.629 173.406 113.693 173.043 112.688 172.46C111.687 171.88 110.908 171.249 110.353 170.569C109.8 169.886 109.482 169.182 109.401 168.459C109.321 167.732 109.486 167.014 109.894 166.304C110.302 165.595 110.84 165.095 111.507 164.806C112.172 164.515 112.937 164.44 113.801 164.583C114.664 164.721 115.596 165.08 116.598 165.661C117.605 166.245 118.388 166.878 118.947 167.56C119.502 168.24 119.822 168.943 119.906 169.668C119.987 170.392 119.823 171.11 119.413 171.823ZM118.208 171.125C118.57 170.496 118.546 169.829 118.139 169.121C117.733 168.411 116.953 167.721 115.798 167.052C115.031 166.607 114.336 166.313 113.713 166.169C113.089 166.02 112.553 166.018 112.106 166.161C111.657 166.3 111.314 166.576 111.076 166.99C110.716 167.615 110.741 168.283 111.15 168.995C111.558 169.707 112.338 170.399 113.488 171.07C114.258 171.516 114.955 171.813 115.579 171.962C116.202 172.106 116.737 172.108 117.182 171.967C117.625 171.825 117.967 171.544 118.208 171.125Z" fill="#333333" fill-rule="nonzero" opacity="1" stroke="none"/>
<path d="M124.368 163.206C123.953 163.92 123.413 164.422 122.749 164.714C122.084 165.005 121.318 165.078 120.451 164.934C119.583 164.789 118.647 164.426 117.643 163.843C116.641 163.263 115.863 162.632 115.308 161.952C114.754 161.269 114.437 160.565 114.356 159.842C114.276 159.115 114.44 158.397 114.849 157.687C115.257 156.978 115.794 156.478 116.462 156.189C117.127 155.898 117.891 155.823 118.756 155.966C119.619 156.104 120.551 156.463 121.553 157.044C122.56 157.628 123.343 158.261 123.901 158.943C124.457 159.623 124.776 160.326 124.861 161.051C124.942 161.775 124.777 162.493 124.368 163.206ZM123.163 162.507C123.524 161.879 123.501 161.212 123.094 160.504C122.688 159.794 121.908 159.104 120.753 158.435C119.986 157.99 119.291 157.696 118.668 157.552C118.043 157.403 117.508 157.401 117.06 157.544C116.612 157.683 116.268 157.959 116.03 158.373C115.671 158.998 115.696 159.666 116.104 160.378C116.513 161.09 117.292 161.782 118.443 162.453C119.213 162.899 119.91 163.196 120.534 163.345C121.157 163.489 121.692 163.491 122.137 163.35C122.58 163.208 122.922 162.927 123.163 162.507Z" fill="#333333" fill-rule="nonzero" opacity="1" stroke="none"/>
<path d="M125.102 154.356C124.478 155.44 124.847 156.861 125.939 157.495C127.045 158.135 128.455 157.745 129.078 156.661C129.716 155.551 129.34 154.143 128.235 153.502C127.143 152.869 125.74 153.246 125.102 154.356ZM128.316 156.219C127.935 156.882 127.066 157.127 126.38 156.729C125.706 156.339 125.483 155.461 125.864 154.798C126.26 154.109 127.122 153.877 127.795 154.267C128.481 154.665 128.712 155.53 128.316 156.219Z" fill="#333333" fill-rule="nonzero" opacity="1" stroke="none"/>
<path d="M127.501 338.437L126.491 339.023L121.446 337.761C120.902 337.63 120.435 337.532 120.045 337.468C119.65 337.403 119.302 337.386 118.999 337.417C118.695 337.447 118.409 337.541 118.138 337.698C117.831 337.876 117.608 338.102 117.469 338.376C117.327 338.652 117.267 338.95 117.291 339.27C117.312 339.592 117.413 339.91 117.593 340.224C117.784 340.557 118.019 340.807 118.296 340.977C118.574 341.146 118.875 341.225 119.198 341.215C119.521 341.205 119.848 341.104 120.178 340.912L120.947 342.249C120.384 342.575 119.818 342.73 119.248 342.714C118.677 342.699 118.146 342.531 117.654 342.213C117.159 341.896 116.745 341.449 116.414 340.872C116.079 340.289 115.899 339.709 115.876 339.13C115.847 338.551 115.959 338.021 116.212 337.54C116.462 337.061 116.835 336.678 117.331 336.39C117.674 336.191 118.047 336.062 118.45 336.002C118.85 335.938 119.343 335.948 119.929 336.032C120.511 336.117 121.25 336.276 122.146 336.51L125.128 337.239L125.196 337.2L122.795 333.024L123.99 332.33L127.501 338.437Z" fill="#333333" fill-rule="nonzero" opacity="1" stroke="none"/>
<path d="M121.205 331.671L120.077 332.325L111.465 331.972L110.952 331.08L112.612 330.118L112.938 330.684L119.107 330.931L119.179 330.889L116.02 325.394L117.202 324.709L121.205 331.671ZM120.48 326.227L118.333 327.471L117.813 327.761L111.236 331.574L110.473 330.247L119.712 324.89L120.48 326.227Z" fill="#333333" fill-rule="nonzero" opacity="1" stroke="none"/>
<path d="M116.175 318.383C116.583 319.1 116.747 319.82 116.666 320.544C116.584 321.268 116.265 321.97 115.706 322.652C115.148 323.334 114.367 323.967 113.362 324.549C112.361 325.13 111.428 325.491 110.563 325.634C109.697 325.774 108.932 325.698 108.267 325.407C107.601 325.113 107.063 324.611 106.655 323.901C106.247 323.191 106.085 322.474 106.17 321.748C106.251 321.025 106.569 320.323 107.124 319.643C107.675 318.961 108.451 318.33 109.452 317.749C110.46 317.165 111.398 316.801 112.265 316.657C113.129 316.514 113.895 316.587 114.563 316.877C115.228 317.168 115.765 317.67 116.175 318.383ZM114.97 319.081C114.609 318.453 114.021 318.139 113.208 318.139C112.392 318.137 111.407 318.471 110.252 319.14C109.485 319.585 108.884 320.042 108.448 320.512C108.008 320.981 107.738 321.445 107.638 321.906C107.533 322.365 107.6 322.802 107.837 323.216C108.197 323.841 108.786 324.154 109.604 324.154C110.423 324.155 111.409 323.823 112.562 323.158C113.332 322.712 113.938 322.254 114.378 321.786C114.813 321.316 115.082 320.852 115.184 320.394C115.283 319.938 115.211 319.501 114.97 319.081Z" fill="#333333" fill-rule="nonzero" opacity="1" stroke="none"/>
<path d="M108.909 313.319C109.532 314.403 110.942 314.794 112.035 314.16C113.14 313.519 113.508 312.098 112.885 311.014C112.247 309.904 110.844 309.527 109.739 310.167C108.646 310.801 108.27 312.209 108.909 313.319ZM112.123 311.456C112.504 312.119 112.281 312.997 111.595 313.395C110.921 313.785 110.052 313.541 109.671 312.877C109.275 312.188 109.506 311.323 110.179 310.933C110.865 310.535 111.727 310.767 112.123 311.456Z" fill="#333333" fill-rule="nonzero" opacity="1" stroke="none"/>
<path d="M405.186 321.957L395.947 316.6L396.754 315.196L404.595 319.742L404.626 319.687L404.459 316.631L405.794 317.405L405.97 320.593L405.186 321.957Z" fill="#333333" fill-rule="nonzero" opacity="1" stroke="none"/>
<path d="M394.284 319.493L395.294 320.079L396.728 325.096C396.887 325.635 397.037 326.09 397.176 326.461C397.317 326.836 397.477 327.148 397.655 327.397C397.833 327.645 398.057 327.847 398.328 328.004C398.635 328.182 398.941 328.263 399.247 328.247C399.556 328.233 399.843 328.135 400.107 327.954C400.375 327.775 400.599 327.529 400.779 327.215C400.97 326.882 401.069 326.553 401.076 326.227C401.083 325.901 401.002 325.6 400.832 325.324C400.661 325.048 400.411 324.815 400.08 324.623L400.848 323.286C401.411 323.612 401.828 324.027 402.1 324.531C402.371 325.035 402.493 325.581 402.464 326.168C402.438 326.757 402.259 327.34 401.928 327.917C401.592 328.499 401.181 328.946 400.695 329.255C400.209 329.57 399.696 329.737 399.155 329.758C398.616 329.78 398.099 329.647 397.603 329.36C397.26 329.161 396.962 328.901 396.709 328.582C396.454 328.265 396.216 327.831 395.996 327.28C395.778 326.731 395.546 326.009 395.299 325.113L394.437 322.155L394.369 322.116L391.968 326.292L390.772 325.599L394.284 319.493Z" fill="#333333" fill-rule="nonzero" opacity="1" stroke="none"/>
<path d="M387.555 330.84C387.969 330.126 388.509 329.623 389.173 329.332C389.838 329.041 390.604 328.967 391.472 329.112C392.339 329.256 393.275 329.62 394.279 330.202C395.281 330.783 396.059 331.413 396.615 332.093C397.168 332.777 397.485 333.48 397.567 334.204C397.646 334.93 397.482 335.648 397.074 336.358C396.666 337.068 396.128 337.567 395.46 337.857C394.796 338.148 394.031 338.222 393.167 338.079C392.304 337.941 391.371 337.582 390.37 337.001C389.362 336.417 388.579 335.784 388.021 335.102C387.466 334.422 387.146 333.719 387.062 332.994C386.981 332.27 387.145 331.552 387.555 330.84ZM388.759 331.538C388.398 332.166 388.421 332.834 388.829 333.541C389.234 334.251 390.014 334.941 391.169 335.611C391.936 336.055 392.631 336.35 393.254 336.493C393.879 336.642 394.415 336.645 394.862 336.501C395.311 336.363 395.654 336.087 395.892 335.673C396.251 335.048 396.227 334.379 395.818 333.667C395.409 332.955 394.63 332.264 393.48 331.593C392.71 331.146 392.013 330.849 391.388 330.7C390.765 330.557 390.231 330.555 389.785 330.695C389.343 330.837 389.001 331.118 388.759 331.538Z" fill="#333333" fill-rule="nonzero" opacity="1" stroke="none"/>
<path d="M386.821 339.69C387.444 338.605 387.075 337.184 385.983 336.551C384.878 335.91 383.468 336.3 382.844 337.384C382.206 338.494 382.582 339.903 383.687 340.543C384.78 341.177 386.182 340.799 386.821 339.69ZM383.606 337.826C383.988 337.163 384.857 336.918 385.543 337.316C386.216 337.706 386.44 338.584 386.058 339.248C385.662 339.937 384.801 340.168 384.127 339.778C383.441 339.38 383.21 338.515 383.606 337.826Z" fill="#333333" fill-rule="nonzero" opacity="1" stroke="none"/>
<path d="M190.422 391.932L189.752 392.892L184.65 393.89C184.101 394.002 183.636 394.112 183.256 394.219C182.871 394.327 182.548 394.459 182.286 394.616C182.024 394.773 181.804 394.979 181.625 395.236C181.421 395.528 181.314 395.827 181.304 396.135C181.291 396.445 181.363 396.74 181.519 397.02C181.673 397.303 181.899 397.549 182.194 397.757C182.507 397.977 182.825 398.105 183.148 398.14C183.471 398.176 183.777 398.12 184.065 397.974C184.354 397.828 184.608 397.598 184.827 397.283L186.086 398.169C185.713 398.703 185.265 399.084 184.742 399.312C184.218 399.54 183.666 399.613 183.086 399.533C182.504 399.456 181.941 399.227 181.398 398.844C180.849 398.458 180.442 398.008 180.177 397.494C179.908 396.981 179.786 396.453 179.813 395.91C179.838 395.37 180.015 394.864 180.343 394.393C180.57 394.067 180.854 393.792 181.193 393.566C181.53 393.339 181.981 393.139 182.546 392.966C183.11 392.796 183.847 392.627 184.758 392.458L187.767 391.854L187.812 391.79L183.878 389.024L184.669 387.888L190.422 391.932Z" fill="#333333" fill-rule="nonzero" opacity="1" stroke="none"/>
<path d="M173.257 392.942L179.376 384.166L180.699 385.097L175.506 392.543L175.557 392.579L178.604 392.678L177.72 393.947L174.541 393.845L173.257 392.942Z" fill="#333333" fill-rule="nonzero" opacity="1" stroke="none"/>
<path d="M173.71 379.966C174.383 380.443 174.834 381.027 175.065 381.717C175.296 382.407 175.302 383.18 175.083 384.035C174.864 384.89 174.422 385.794 173.757 386.748C173.094 387.699 172.4 388.423 171.677 388.919C170.951 389.413 170.225 389.67 169.5 389.688C168.773 389.704 168.074 389.477 167.406 389.007C166.737 388.537 166.289 387.955 166.06 387.262C165.829 386.572 165.822 385.801 166.039 384.949C166.251 384.097 166.688 383.196 167.352 382.245C168.019 381.288 168.715 380.56 169.441 380.061C170.164 379.565 170.889 379.306 171.616 379.285C172.341 379.267 173.039 379.494 173.71 379.966ZM172.913 381.11C172.321 380.694 171.656 380.659 170.919 381.005C170.179 381.349 169.427 382.069 168.662 383.166C168.154 383.894 167.801 384.564 167.604 385.175C167.403 385.786 167.353 386.322 167.456 386.782C167.555 387.243 167.799 387.61 168.189 387.884C168.778 388.298 169.443 388.332 170.185 387.985C170.927 387.639 171.681 386.919 172.447 385.827C172.957 385.096 173.313 384.424 173.514 383.813C173.711 383.202 173.76 382.668 173.659 382.21C173.557 381.755 173.308 381.388 172.913 381.11Z" fill="#333333" fill-rule="nonzero" opacity="1" stroke="none"/>
<path d="M164.994 378.46C166.015 379.179 167.458 378.934 168.181 377.896C168.913 376.846 168.649 375.402 167.628 374.684C166.582 373.949 165.152 374.202 164.42 375.252C163.696 376.289 163.949 377.725 164.994 378.46ZM167.123 375.408C167.748 375.847 167.915 376.738 167.46 377.389C167.014 378.029 166.124 378.176 165.499 377.736C164.85 377.28 164.695 376.398 165.141 375.759C165.595 375.107 166.474 374.952 167.123 375.408Z" fill="#333333" fill-rule="nonzero" opacity="1" stroke="none"/>
<path d="M345.948 387.447L339.829 378.672L341.152 377.742L346.345 385.188L346.396 385.153L347.531 382.311L348.415 383.58L347.233 386.544L345.948 387.447Z" fill="#333333" fill-rule="nonzero" opacity="1" stroke="none"/>
<path d="M334.136 382.495C334.671 382.119 335.223 381.884 335.793 381.79C336.363 381.7 336.9 381.748 337.407 381.933C337.913 382.117 338.337 382.437 338.678 382.89L337.398 383.79C337.104 383.435 336.722 383.242 336.251 383.212C335.78 383.181 335.334 383.313 334.913 383.609C334.577 383.845 334.334 384.132 334.182 384.468C334.03 384.809 333.976 385.169 334.019 385.547C334.059 385.927 334.202 386.293 334.447 386.644C334.696 387.001 334.995 387.266 335.344 387.438C335.693 387.61 336.058 387.681 336.44 387.651C336.819 387.622 337.183 387.488 337.532 387.247C337.796 387.061 338.031 386.828 338.234 386.549C338.438 386.269 338.57 385.997 338.632 385.733L339.965 385.064L342.558 389.83L337.753 393.209L336.961 392.073L340.669 389.466L339.235 386.816L339.183 386.852C339.128 387.138 338.999 387.435 338.795 387.744C338.588 388.056 338.322 388.326 337.998 388.554C337.466 388.928 336.904 389.134 336.311 389.171C335.716 389.211 335.145 389.095 334.599 388.823C334.053 388.556 333.583 388.137 333.189 387.567C332.79 387.001 332.564 386.404 332.513 385.776C332.458 385.15 332.568 384.549 332.844 383.972C333.119 383.4 333.55 382.907 334.136 382.495Z" fill="#333333" fill-rule="nonzero" opacity="1" stroke="none"/>
<path d="M326.148 388.073C326.824 387.602 327.525 387.376 328.25 387.394C328.975 387.412 329.7 387.671 330.425 388.17C331.15 388.668 331.846 389.395 332.511 390.349C333.174 391.3 333.614 392.202 333.831 393.054C334.045 393.908 334.037 394.68 333.806 395.371C333.572 396.063 333.121 396.644 332.453 397.114C331.784 397.584 331.086 397.809 330.359 397.788C329.634 397.769 328.91 397.512 328.187 397.016C327.463 396.525 326.769 395.804 326.106 394.852C325.438 393.895 324.995 392.99 324.776 392.135C324.559 391.282 324.566 390.51 324.794 389.817C325.025 389.126 325.477 388.545 326.148 388.073ZM326.946 389.217C326.354 389.633 326.094 390.248 326.165 391.062C326.234 391.878 326.651 392.834 327.416 393.931C327.924 394.66 328.43 395.221 328.934 395.616C329.437 396.016 329.922 396.245 330.388 396.305C330.853 396.37 331.28 396.266 331.67 395.991C332.259 395.577 332.518 394.961 332.447 394.142C332.376 393.324 331.961 392.366 331.201 391.27C330.691 390.539 330.184 389.973 329.681 389.574C329.177 389.179 328.693 388.951 328.23 388.889C327.769 388.83 327.341 388.939 326.946 389.217Z" fill="#333333" fill-rule="nonzero" opacity="1" stroke="none"/>
<path d="M321.758 395.783C322.779 395.065 323.043 393.62 322.32 392.582C321.588 391.533 320.145 391.288 319.124 392.006C318.079 392.741 317.826 394.177 318.558 395.227C319.282 396.264 320.712 396.518 321.758 395.783ZM319.629 392.73C320.254 392.291 321.144 392.438 321.599 393.089C322.045 393.729 321.878 394.619 321.253 395.059C320.604 395.515 319.725 395.359 319.279 394.72C318.825 394.068 318.98 393.186 319.629 392.73Z" fill="#333333" fill-rule="nonzero" opacity="1" stroke="none"/>
<path d="M261.396 10L261.396 31.7355L258.394 31.7355L247.391 15.7947L247.19 15.7947L247.19 31.7355L243.924 31.7355L243.924 10L246.947 10L257.961 25.962L258.162 25.962L258.162 10L261.396 10Z" fill="#6aa97b" fill-rule="nonzero" opacity="1" stroke="none"/>
<path d="M476.218 255.464L476.218 233.729L489.789 233.729L489.789 236.552L479.484 236.552L479.484 243.174L489.081 243.174L489.081 245.987L479.484 245.987L479.484 252.641L489.916 252.641L489.916 255.464L476.218 255.464Z" fill="#47515c" fill-rule="nonzero" opacity="1" stroke="none"/>
<path d="M257.005 473.613C256.893 472.609 256.428 471.83 255.61 471.279C254.793 470.72 253.764 470.44 252.524 470.44C251.636 470.44 250.868 470.582 250.22 470.865C249.571 471.141 249.068 471.523 248.708 472.011C248.356 472.492 248.18 473.04 248.18 473.656C248.18 474.172 248.3 474.618 248.539 474.993C248.786 475.368 249.106 475.683 249.501 475.938C249.903 476.185 250.332 476.394 250.79 476.564C251.248 476.727 251.689 476.861 252.112 476.967L254.226 477.519C254.916 477.689 255.624 477.919 256.35 478.209C257.076 478.499 257.749 478.881 258.369 479.355C258.989 479.829 259.489 480.416 259.87 481.117C260.257 481.817 260.451 482.656 260.451 483.632C260.451 484.863 260.134 485.956 259.5 486.912C258.873 487.867 257.96 488.62 256.762 489.172C255.571 489.724 254.13 490 252.439 490C250.819 490 249.416 489.742 248.233 489.225C247.049 488.709 246.122 487.976 245.453 487.028C244.783 486.073 244.413 484.941 244.343 483.632L247.62 483.632C247.683 484.418 247.937 485.072 248.381 485.596C248.832 486.112 249.406 486.498 250.103 486.752C250.808 487 251.58 487.124 252.418 487.124C253.341 487.124 254.162 486.979 254.881 486.689C255.607 486.392 256.178 485.981 256.593 485.458C257.009 484.927 257.217 484.308 257.217 483.6C257.217 482.957 257.034 482.429 256.667 482.019C256.308 481.609 255.818 481.269 255.198 481C254.585 480.731 253.891 480.494 253.116 480.289L250.558 479.589C248.824 479.115 247.45 478.418 246.436 477.498C245.428 476.578 244.924 475.361 244.924 473.847C244.924 472.595 245.262 471.501 245.939 470.568C246.615 469.634 247.531 468.908 248.687 468.392C249.843 467.868 251.146 467.607 252.598 467.607C254.064 467.607 255.357 467.865 256.477 468.381C257.604 468.898 258.492 469.609 259.141 470.514C259.789 471.413 260.127 472.446 260.155 473.613L257.005 473.613Z" fill="#47515c" fill-rule="nonzero" opacity="1" stroke="none"/>
<path d="M15.9196 259.2L9.91605 237.464L13.3512 237.464L17.5685 254.297L17.7693 254.297L22.1557 237.464L25.5592 237.464L29.9456 254.307L30.1465 254.307L34.3532 237.464L37.7989 237.464L31.7848 259.2L28.4976 259.2L23.942 242.92L23.7729 242.92L19.2174 259.2L15.9196 259.2Z" fill="#47515c" fill-rule="nonzero" opacity="1" stroke="none"/>
<path d="M261.606 415.801L261.606 402.759L263.958 402.759L263.958 413.502L264.035 413.502L267.072 411.553L267.072 413.718L263.844 415.801L261.606 415.801Z" fill="#333333" fill-rule="nonzero" opacity="1" stroke="none"/>
<path d="M253.155 402.581C254.098 402.581 254.935 402.74 255.667 403.059C256.394 403.377 256.965 403.812 257.379 404.364C257.789 404.92 257.992 405.55 257.988 406.255C257.992 406.803 257.874 407.306 257.633 407.764C257.392 408.223 257.066 408.605 256.656 408.911C256.242 409.221 255.781 409.418 255.274 409.503L255.274 409.592C255.942 409.741 256.483 410.082 256.897 410.617C257.307 411.156 257.51 411.778 257.506 412.483C257.51 413.154 257.324 413.752 256.948 414.279C256.571 414.805 256.056 415.219 255.4 415.52C254.745 415.826 253.997 415.979 253.155 415.979C252.322 415.979 251.58 415.826 250.929 415.52C250.274 415.219 249.758 414.805 249.382 414.279C249.001 413.752 248.811 413.154 248.811 412.483C248.811 411.778 249.02 411.156 249.439 410.617C249.853 410.082 250.388 409.741 251.043 409.592L251.043 409.503C250.536 409.418 250.08 409.221 249.674 408.911C249.264 408.605 248.938 408.223 248.697 407.764C248.452 407.306 248.329 406.803 248.329 406.255C248.329 405.55 248.536 404.92 248.951 404.364C249.365 403.812 249.936 403.377 250.663 403.059C251.386 402.74 252.217 402.581 253.155 402.581ZM253.155 404.402C252.669 404.402 252.246 404.485 251.887 404.65C251.528 404.82 251.249 405.058 251.05 405.364C250.851 405.669 250.75 406.022 250.745 406.421C250.75 406.837 250.857 407.204 251.069 407.522C251.276 407.845 251.561 408.098 251.925 408.28C252.284 408.463 252.694 408.554 253.155 408.554C253.62 408.554 254.035 408.463 254.398 408.28C254.762 408.098 255.049 407.845 255.261 407.522C255.468 407.204 255.569 406.837 255.565 406.421C255.569 406.022 255.472 405.669 255.274 405.364C255.075 405.062 254.796 404.827 254.436 404.657C254.073 404.487 253.646 404.402 253.155 404.402ZM253.155 410.343C252.758 410.343 252.407 410.424 252.103 410.585C251.794 410.747 251.551 410.972 251.373 411.26C251.196 411.549 251.105 411.882 251.101 412.26C251.105 412.634 251.194 412.961 251.367 413.241C251.54 413.525 251.781 413.744 252.09 413.897C252.399 414.054 252.754 414.132 253.155 414.132C253.565 414.132 253.927 414.054 254.24 413.897C254.548 413.744 254.789 413.525 254.963 413.241C255.132 412.961 255.214 412.634 255.21 412.26C255.214 411.882 255.13 411.549 254.956 411.26C254.779 410.976 254.536 410.751 254.227 410.585C253.914 410.424 253.557 410.343 253.155 410.343Z" fill="#333333" fill-rule="nonzero" opacity="1" stroke="none"/>
<path d="M240.908 402.511C241.952 402.511 242.848 402.776 243.597 403.307C244.341 403.842 244.914 404.612 245.315 405.618C245.713 406.629 245.911 407.845 245.911 409.267C245.907 410.689 245.706 411.899 245.309 412.897C244.907 413.899 244.334 414.663 243.59 415.189C242.842 415.716 241.948 415.979 240.908 415.979C239.868 415.979 238.973 415.716 238.225 415.189C237.477 414.663 236.904 413.899 236.507 412.897C236.105 411.895 235.904 410.685 235.904 409.267C235.904 407.841 236.105 406.622 236.507 405.612C236.904 404.606 237.477 403.838 238.225 403.307C238.969 402.776 239.863 402.511 240.908 402.511ZM240.908 404.504C240.096 404.504 239.455 404.905 238.986 405.708C238.513 406.514 238.276 407.701 238.276 409.267C238.276 410.303 238.384 411.173 238.599 411.878C238.815 412.583 239.119 413.113 239.513 413.47C239.906 413.831 240.371 414.011 240.908 414.011C241.715 414.011 242.354 413.608 242.823 412.801C243.292 411.999 243.529 410.821 243.533 409.267C243.538 408.227 243.434 407.353 243.223 406.644C243.007 405.935 242.703 405.4 242.309 405.039C241.916 404.682 241.449 404.504 240.908 404.504Z" fill="#333333" fill-rule="nonzero" opacity="1" stroke="none"/>
<path d="M230.969 407.152C232.487 407.152 233.755 405.897 233.755 404.355C233.755 402.795 232.487 401.54 230.969 401.54C229.415 401.54 228.165 402.795 228.165 404.355C228.165 405.897 229.415 407.152 230.969 407.152ZM230.969 402.616C231.897 402.616 232.683 403.387 232.683 404.355C232.683 405.306 231.897 406.077 230.969 406.077C230.004 406.077 229.236 405.306 229.236 404.355C229.236 403.387 230.004 402.616 230.969 402.616Z" fill="#333333" fill-rule="nonzero" opacity="1" stroke="none"/>
<path d="M105.437 263.671L103.738 263.671L99.3173 259.144C98.8818 258.711 98.495 258.35 98.1567 258.061C97.8185 257.773 97.4909 257.556 97.1738 257.412C96.8567 257.267 96.5184 257.195 96.159 257.195C95.7489 257.195 95.398 257.289 95.1063 257.476C94.8103 257.662 94.582 257.919 94.4214 258.246C94.2607 258.573 94.1804 258.944 94.1804 259.36C94.1804 259.789 94.2692 260.165 94.4468 260.488C94.6201 260.81 94.8674 261.061 95.1887 261.239C95.5101 261.413 95.8927 261.5 96.3366 261.5L96.3366 263.748C95.5122 263.748 94.7956 263.559 94.1867 263.181C93.5779 262.803 93.1065 262.283 92.7725 261.621C92.4385 260.954 92.2715 260.19 92.2715 259.329C92.2715 258.454 92.4343 257.686 92.7598 257.023C93.0854 256.361 93.5314 255.848 94.098 255.482C94.6645 255.113 95.3114 254.928 96.0386 254.928C96.5248 254.928 97.0025 255.022 97.4718 255.209C97.9411 255.395 98.4611 255.724 99.0319 256.196C99.6027 256.663 100.294 257.318 101.106 258.163L103.382 260.411L103.471 260.411L103.471 254.731L105.437 254.731L105.437 263.671Z" fill="#333333" fill-rule="nonzero" opacity="1" stroke="none"/>
<path d="M105.437 251.519L94.5038 245.972L94.415 245.972L94.415 252.41L92.4491 252.41L92.4491 243.527L94.4594 243.527L105.437 249.067L105.437 251.519Z" fill="#333333" fill-rule="nonzero" opacity="1" stroke="none"/>
<path d="M105.684 236.394C105.684 237.442 105.42 238.342 104.892 239.093C104.359 239.841 103.592 240.416 102.59 240.819C101.583 241.218 100.372 241.418 98.9558 241.418C97.5394 241.413 96.3345 241.212 95.341 240.813C94.3432 240.409 93.5822 239.834 93.0579 239.087C92.5336 238.336 92.2715 237.438 92.2715 236.394C92.2715 235.349 92.5336 234.451 93.0579 233.7C93.5822 232.949 94.3432 232.373 95.341 231.974C96.3388 231.571 97.5437 231.369 98.9558 231.369C100.376 231.369 101.59 231.571 102.596 231.974C103.598 232.373 104.363 232.949 104.892 233.7C105.42 234.447 105.684 235.345 105.684 236.394ZM103.7 236.394C103.7 235.578 103.3 234.935 102.501 234.464C101.698 233.989 100.516 233.751 98.9558 233.751C97.9242 233.751 97.0575 233.859 96.3557 234.076C95.6538 234.292 95.1253 234.598 94.7702 234.993C94.4108 235.387 94.2311 235.854 94.2311 236.394C94.2311 237.204 94.6328 237.845 95.4361 238.317C96.2351 238.788 97.4084 239.026 98.9558 239.03C99.992 239.034 100.863 238.93 101.569 238.718C102.275 238.501 102.807 238.196 103.167 237.801C103.522 237.406 103.7 236.937 103.7 236.394Z" fill="#333333" fill-rule="nonzero" opacity="1" stroke="none"/>
<path d="M101.062 226.414C101.062 227.938 102.312 229.211 103.848 229.211C105.401 229.211 106.652 227.938 106.652 226.414C106.652 224.854 105.401 223.598 103.848 223.598C102.312 223.598 101.062 224.854 101.062 226.414ZM105.58 226.414C105.58 227.346 104.812 228.135 103.848 228.135C102.901 228.135 102.133 227.346 102.133 226.414C102.133 225.445 102.901 224.674 103.848 224.674C104.812 224.674 105.58 225.445 105.58 226.414Z" fill="#333333" fill-rule="nonzero" opacity="1" stroke="none"/>
<path d="M420.498 239.853C420.494 240.477 420.384 241.084 420.168 241.674C419.957 242.268 419.61 242.803 419.128 243.279C418.651 243.754 418.01 244.132 417.207 244.412C416.403 244.692 415.41 244.832 414.226 244.832C413.11 244.837 412.112 244.718 411.233 244.476C410.357 244.238 409.618 243.896 409.013 243.451C408.408 243.005 407.948 242.468 407.631 241.839C407.313 241.211 407.155 240.504 407.155 239.719C407.155 238.895 407.315 238.165 407.637 237.528C407.958 236.896 408.398 236.384 408.956 235.994C409.514 235.603 410.152 235.363 410.871 235.274L410.871 237.598C410.355 237.717 409.945 237.959 409.641 238.324C409.341 238.694 409.191 239.159 409.191 239.719C409.191 240.623 409.582 241.319 410.364 241.808C411.146 242.296 412.233 242.54 413.624 242.54L413.624 242.451C413.251 242.243 412.93 241.973 412.66 241.642C412.393 241.311 412.188 240.935 412.044 240.515C411.901 240.099 411.829 239.657 411.829 239.19C411.829 238.426 412.011 237.739 412.374 237.127C412.738 236.52 413.237 236.038 413.871 235.682C414.505 235.329 415.23 235.151 416.046 235.147C416.892 235.147 417.651 235.342 418.323 235.733C418.999 236.128 419.532 236.677 419.921 237.382C420.314 238.087 420.507 238.91 420.498 239.853ZM418.596 239.859C418.596 239.401 418.483 238.987 418.259 238.617C418.04 238.252 417.739 237.964 417.359 237.751C416.983 237.543 416.562 237.439 416.097 237.439C415.636 237.444 415.217 237.548 414.841 237.751C414.465 237.959 414.167 238.242 413.947 238.598C413.727 238.959 413.617 239.371 413.617 239.834C413.617 240.177 413.683 240.498 413.814 240.795C413.945 241.092 414.127 241.351 414.359 241.572C414.596 241.797 414.864 241.971 415.165 242.094C415.465 242.222 415.782 242.283 416.116 242.279C416.56 242.279 416.97 242.173 417.346 241.96C417.722 241.752 418.025 241.466 418.253 241.101C418.481 240.74 418.596 240.326 418.596 239.859Z" fill="#333333" fill-rule="nonzero" opacity="1" stroke="none"/>
<path d="M407.085 252.311C407.085 251.263 407.349 250.363 407.878 249.611C408.411 248.864 409.178 248.289 410.18 247.886C411.186 247.487 412.397 247.287 413.814 247.287C415.23 247.291 416.435 247.493 417.429 247.892C418.426 248.295 419.187 248.87 419.712 249.618C420.236 250.369 420.498 251.267 420.498 252.311C420.498 253.356 420.236 254.253 419.712 255.005C419.187 255.756 418.426 256.331 417.429 256.73C416.431 257.134 415.226 257.335 413.814 257.335C412.393 257.335 411.18 257.134 410.174 256.73C409.172 256.331 408.406 255.756 407.878 255.005C407.349 254.258 407.085 253.36 407.085 252.311ZM409.07 252.311C409.07 253.126 409.47 253.769 410.269 254.241C411.072 254.716 412.254 254.954 413.814 254.954C414.845 254.954 415.712 254.846 416.414 254.629C417.116 254.413 417.644 254.107 417.999 253.712C418.359 253.317 418.538 252.85 418.538 252.311C418.538 251.5 418.137 250.859 417.334 250.388C416.534 249.917 415.361 249.679 413.814 249.675C412.778 249.671 411.907 249.775 411.201 249.987C410.495 250.203 409.962 250.509 409.603 250.904C409.248 251.299 409.07 251.768 409.07 252.311Z" fill="#333333" fill-rule="nonzero" opacity="1" stroke="none"/>
<path d="M411.708 262.291C411.708 260.767 410.458 259.494 408.922 259.494C407.368 259.494 406.118 260.767 406.118 262.291C406.118 263.851 407.368 265.106 408.922 265.106C410.458 265.106 411.708 263.851 411.708 262.291ZM407.19 262.291C407.19 261.359 407.957 260.57 408.922 260.57C409.868 260.57 410.636 261.359 410.636 262.291C410.636 263.259 409.868 264.03 408.922 264.03C407.957 264.03 407.19 263.259 407.19 262.291Z" fill="#333333" fill-rule="nonzero" opacity="1" stroke="none"/>
<path d="M252.664 47.2122L250.538 47.2122L250.538 73.8964L252.664 73.8964L252.664 47.2122Z" fill="#47515c" fill-opacity="0.2" fill-rule="nonzero" opacity="1" stroke="none"/>
<path d="M252.664 422.926L250.538 422.926L250.538 449.61L252.664 449.61L252.664 422.926Z" fill="#47515c" fill-opacity="0.2" fill-rule="nonzero" opacity="1" stroke="none"/>
<path d="M55.4755 246.276L55.4755 248.411L82.0508 248.411L82.0508 246.276L55.4755 246.276Z" fill="#47515c" fill-opacity="0.2" fill-rule="nonzero" opacity="1" stroke="none"/>
<path d="M430.187 246.276L430.187 248.411L456.763 248.411L456.763 246.276L430.187 246.276Z" fill="#47515c" fill-opacity="0.2" fill-rule="nonzero" opacity="1" stroke="none"/>
<path d="M81.8256 347.152L82.8886 349.001L105.903 335.659L104.84 333.81L81.8256 347.152Z" fill="#47515c" fill-opacity="0.2" fill-rule="nonzero" opacity="1" stroke="none"/>
<path d="M406.336 159.029L407.399 160.877L430.414 147.535L429.351 145.686L406.336 159.029Z" fill="#47515c" fill-opacity="0.2" fill-rule="nonzero" opacity="1" stroke="none"/>
<path d="M154.877 421.284L156.718 422.352L170.006 399.243L168.165 398.175L154.877 421.284Z" fill="#47515c" fill-opacity="0.2" fill-rule="nonzero" opacity="1" stroke="none"/>
<path d="M342.233 95.4447L344.074 96.5121L357.362 73.4029L355.521 72.3355L342.233 95.4447Z" fill="#47515c" fill-opacity="0.2" fill-rule="nonzero" opacity="1" stroke="none"/>
<path d="M355.521 422.352L357.362 421.284L344.074 398.175L342.233 399.243L355.521 422.352Z" fill="#47515c" fill-opacity="0.2" fill-rule="nonzero" opacity="1" stroke="none"/>
<path d="M168.165 96.512L170.006 95.4447L156.718 72.3355L154.877 73.4028L168.165 96.512Z" fill="#47515c" fill-opacity="0.2" fill-rule="nonzero" opacity="1" stroke="none"/>
<path d="M429.351 349.001L430.414 347.152L407.399 333.81L406.336 335.659L429.351 349.001Z" fill="#47515c" fill-opacity="0.2" fill-rule="nonzero" opacity="1" stroke="none"/>
<path d="M104.841 160.877L105.904 159.028L82.8888 145.686L81.8258 147.535L104.841 160.877Z" fill="#47515c" fill-opacity="0.2" fill-rule="nonzero" opacity="1" stroke="none"/>
<path d="M62.3849 298.293L62.9342 300.351L72.1583 297.869L71.609 295.811L62.3849 298.293Z" fill="#47515c" fill-opacity="0.2" fill-rule="nonzero" opacity="1" stroke="none"/>
<path d="M439.549 196.818L440.098 198.876L449.322 196.395L448.773 194.337L439.549 196.818Z" fill="#47515c" fill-opacity="0.2" fill-rule="nonzero" opacity="1" stroke="none"/>
<path d="M113.676 388.597L115.177 390.104L121.929 383.324L120.429 381.817L113.676 388.597Z" fill="#47515c" fill-opacity="0.2" fill-rule="nonzero" opacity="1" stroke="none"/>
<path d="M389.261 111.864L390.762 113.371L398.278 105.823L396.778 104.316L389.261 111.864Z" fill="#47515c" fill-opacity="0.2" fill-rule="nonzero" opacity="1" stroke="none"/>
<path d="M203.061 441.053L205.111 441.605L207.583 432.343L205.533 431.791L203.061 441.053Z" fill="#47515c" fill-opacity="0.2" fill-rule="nonzero" opacity="1" stroke="none"/>
<path d="M304.122 62.3448L306.171 62.8963L308.643 53.6344L306.593 53.0829L304.122 62.3448Z" fill="#47515c" fill-opacity="0.2" fill-rule="nonzero" opacity="1" stroke="none"/>
<path d="M306.594 441.605L308.643 441.053L306.172 431.791L304.122 432.343L306.594 441.605Z" fill="#47515c" fill-opacity="0.2" fill-rule="nonzero" opacity="1" stroke="none"/>
<path d="M205.534 62.8965L207.583 62.345L205.112 53.0831L203.062 53.6346L205.534 62.8965Z" fill="#47515c" fill-opacity="0.2" fill-rule="nonzero" opacity="1" stroke="none"/>
<path d="M396.53 390.104L398.03 388.598L391.278 381.817L389.777 383.324L396.53 390.104Z" fill="#47515c" fill-opacity="0.2" fill-rule="nonzero" opacity="1" stroke="none"/>
<path d="M120.427 112.87L121.928 111.364L115.175 104.583L113.675 106.09L120.427 112.87Z" fill="#47515c" fill-opacity="0.2" fill-rule="nonzero" opacity="1" stroke="none"/>
<path d="M448.772 300.352L449.322 298.293L440.098 295.812L439.548 297.87L448.772 300.352Z" fill="#47515c" fill-opacity="0.2" fill-rule="nonzero" opacity="1" stroke="none"/>
<path d="M71.6086 198.877L72.1579 196.819L62.9337 194.337L62.3845 196.395L71.6086 198.877Z" fill="#47515c" fill-opacity="0.2" fill-rule="nonzero" opacity="1" stroke="none"/>
<path d="M378.064 248.754C378.064 316.685 322.995 371.754 255.064 371.754C187.133 371.754 132.064 316.685 132.064 248.754C132.064 180.823 187.133 125.754 255.064 125.754C322.995 125.754 378.064 180.823 378.064 248.754Z" fill="#f3f8ff" fill-rule="nonzero" filter="url(#Filter)" stroke="none" vectornator:shadowAngle="1.5708" vectornator:shadowColor="#667567" vectornator:shadowOffset="0" vectornator:shadowOpacity="1" vectornator:shadowRadius="20"/>
</g>
</g>
</g>
</svg>
